<?xml version="1.0" encoding="UTF-8" standalone="no"?>
<svg
   xmlns:dc="http://purl.org/dc/elements/1.1/"
   xmlns:cc="http://creativecommons.org/ns#"
   xmlns:rdf="http://www.w3.org/1999/02/22-rdf-syntax-ns#"
   xmlns:svg="http://www.w3.org/2000/svg"
   xmlns="http://www.w3.org/2000/svg"
   xmlns:sodipodi="http://sodipodi.sourceforge.net/DTD/sodipodi-0.dtd"
   xmlns:inkscape="http://www.inkscape.org/namespaces/inkscape"
   version="1.0"
   width="1000.000000pt"
   height="1000.000000pt"
   viewBox="0 0 1000.000000 1000.000000"
   preserveAspectRatio="xMidYMid meet"
   id="svg6"
   sodipodi:docname="favicon.svg"
   inkscape:version="1.0.2 (e86c870879, 2021-01-15, custom)">
  <metadata
     id="metadata12">
    <rdf:RDF>
      <cc:Work
         rdf:about="">
        <dc:format>image/svg+xml</dc:format>
        <dc:type
           rdf:resource="http://purl.org/dc/dcmitype/StillImage" />
      </cc:Work>
    </rdf:RDF>
  </metadata>
  <defs
     id="defs10" />
  <sodipodi:namedview
     pagecolor="#ffffff"
     bordercolor="#666666"
     borderopacity="1"
     objecttolerance="10"
     gridtolerance="10"
     guidetolerance="10"
     inkscape:pageopacity="0"
     inkscape:pageshadow="2"
     inkscape:window-width="1680"
     inkscape:window-height="987"
     id="namedview8"
     showgrid="false"
     inkscape:zoom="0.38979261"
     inkscape:cx="131.12728"
     inkscape:cy="657.08573"
     inkscape:window-x="-8"
     inkscape:window-y="-8"
     inkscape:window-maximized="1"
     inkscape:current-layer="layer5" />
  <g
     inkscape:groupmode="layer"
     id="layer5"
     inkscape:label="Layer 2"
     style="display:inline">
    <ellipse
       style="fill:#ffffff;fill-opacity:1;stroke-width:0.751024"
       id="path39"
       cx="499.99985"
       cy="499.96875"
       rx="499.99985"
       ry="499.96875" />
  </g>
  <g
     inkscape:groupmode="layer"
     id="layer4"
     inkscape:label="Layer 1"
     style="display:inline">
    <path
       d="m 458.99999,1.5630184 c -65.9,6.100001 -123.9,22.2000006 -181.49999,50.4000006 -26.1,12.8 -52.9,29 -75,45.3 l -8.9,6.700001 h 19.7 19.7 v 224 c 0,123.5 0.4,224 0.9,224 0.4,0 5.5,-6.2 11.2,-13.7 15.7,-20.8 34.6,-43.5 107.59999,-129.3 l 66.8,-78.5 53.5,-0.3 53.5,-0.2 -7.1,7.2 c -3.9,4 -46.1,48.8 -93.7,99.5 l -86.7,92.3 50.3,67.2 c 27.6,36.9 75.4,101 106.3,142.2 l 56.1,75.1 -52.6,0.3 c -28.9,0.1 -53.1,0 -53.7,-0.2 -0.6,-0.2 -38.3,-52.2 -83.9,-115.5 -45.6,-63.3 -83.19999,-115.1 -83.59999,-115.1 -0.4,0 -10.6,11 -22.8,24.5 l -22.1,24.6 v 90.9 91 H 189.5 146 v -334.3 l -0.1,-334.2 -10,10.5 c -58.8,61.4 -101.8,139.5 -122.8,222.8 -4.2,16.6 -7.7,34.7 -10.6,54.9 -2.4,16.6 -2.5,19.5 -2.5,66.3 0,46.8 0.1,49.7 2.5,66.3 8.3,58.1 23.4,106.6 49,157.8 24.2,48.3 54,89.4 93,128.4 55.8,55.9 121.1,96.4 194.99999,121 76.1,25.4 153.1,32.50008 231,21.4 127.6,-18.2 242.3,-83.7 322.6,-184.1 5.4,-6.8 9.6,-12.4 9.4,-12.6 -0.2,-0.2 -4.3,0.7 -9.2,2.1 -59.5,17 -130.2,18 -180.8,2.7 -37.6,-11.4 -67.6,-29 -93.5,-55 -36.9,-36.8 -58.6,-84.5 -66.2,-145 -1.7,-13.7 -1.7,-57.2 0,-71 13.5,-109 80.7,-187.1 183.3,-213 51.1,-12.9 111.7,-11.6 163.9,3.5 11.1,3.3 30.50001,10.6 32.20001,12.3 0.6,0.6 -5.8,23.4 -16.8,59.9 l -2.5,8.3 -7.70001,-3.9 c -34.9,-17.5 -91.1,-23.8 -134.4,-15.1 -48.5,9.9 -87.7,40 -110.2,84.7 -19.3,38.7 -25.5,92.8 -16,140.3 9.2,46.1 33.1,83.6 68.2,107.1 30.1,20.1 63.9,29.1 104.2,27.5 31.9,-1.2 56.1,-6.3 85.2,-18 8.8,-3.5 13.50001,-5 13.90001,-4.2 0.3,0.6 2.5,9.6 4.8,20.1 2.3,10.4 4.5,19.8 4.8,20.9 1.1,3.9 24.7,-39.9 36.6,-67.9 17.5,-41.3 28.5,-81.3 35.2,-128.2 2.4,-16.6 2.5,-19.5 2.5,-66.3 0,-46.8 -0.1,-49.7 -2.5,-66.3 -8.3,-58.1 -23.4,-106.6 -49,-157.8 -24.2,-48.3 -54.00001,-89.4 -93.00001,-128.4 -77.6,-77.700001 -176.1,-126.900001 -285,-142.4000016 -35.7,-5.09999986 -79.4,-6.5 -111.5,-3.5 z"
       id="path24"
       style="fill:#00021F;stroke:none;stroke-width:0.1" />
  </g>
</svg>
